<?xml version="1.0" encoding="UTF-8" standalone="no"?>
<!-- Created with Inkscape (http://www.inkscape.org/) -->

<svg
   xmlns:dc="http://purl.org/dc/elements/1.1/"
   xmlns:cc="http://creativecommons.org/ns#"
   xmlns:rdf="http://www.w3.org/1999/02/22-rdf-syntax-ns#"
   xmlns:svg="http://www.w3.org/2000/svg"
   xmlns="http://www.w3.org/2000/svg"
   xmlns:sodipodi="http://sodipodi.sourceforge.net/DTD/sodipodi-0.dtd"
   xmlns:inkscape="http://www.inkscape.org/namespaces/inkscape"
   width="50"
   height="50"
   viewBox="0 0 13.229166 13.229167"
   version="1.1"
   id="svg4270"
   inkscape:version="0.92.1 r15371"
   sodipodi:docname="gallery.svg">
  <defs
     id="defs4264" />
  <sodipodi:namedview
     id="base"
     pagecolor="#ffffff"
     bordercolor="#666666"
     borderopacity="1.0"
     inkscape:pageopacity="0.0"
     inkscape:pageshadow="2"
     inkscape:zoom="1.979899"
     inkscape:cx="228.54956"
     inkscape:cy="68.187848"
     inkscape:document-units="mm"
     inkscape:current-layer="layer1"
     showgrid="false"
     inkscape:window-width="1366"
     inkscape:window-height="745"
     inkscape:window-x="-8"
     inkscape:window-y="-8"
     inkscape:window-maximized="1"
     units="px" />
  <metadata
     id="metadata4267">
    <rdf:RDF>
      <cc:Work
         rdf:about="">
        <dc:format>image/svg+xml</dc:format>
        <dc:type
           rdf:resource="http://purl.org/dc/dcmitype/StillImage" />
        <dc:title></dc:title>
      </cc:Work>
    </rdf:RDF>
  </metadata>
  <g
     inkscape:label="Layer 1"
     inkscape:groupmode="layer"
     id="layer1"
     transform="translate(0,-283.77082)">
    <g
       id="g4012"
       transform="matrix(0.10153285,0,0,-0.13314513,12.469935,293.90226)">
      <path
         d="m 0,0 c 0,-11.181 -8.999,-20.247 -20.102,-20.247 h -77.061 c -11.104,0 -20.102,9.066 -20.102,20.247 v 32.059 c 0,11.181 8.998,20.245 20.102,20.245 h 77.061 C -8.999,52.304 0,43.24 0,32.059 Z"
         style="fill:#000000;fill-opacity:1;fill-rule:nonzero;stroke:none"
         id="path4014"
         inkscape:connector-curvature="0" />
    </g>
    <g
       id="g4016"
       transform="matrix(0.10153285,0,0,-0.13314513,10.52821,291.73092)">
      <path
         d="m 0,0 c 0,-17.934 -14.538,-32.479 -32.479,-32.479 -17.936,0 -32.48,14.545 -32.48,32.479 0,17.94 14.544,32.481 32.48,32.481 C -14.538,32.481 0,17.94 0,0"
         style="fill:#ffffff;fill-opacity:1;fill-rule:nonzero;stroke:none"
         id="path4018"
         inkscape:connector-curvature="0" />
    </g>
    <g
       id="g4020"
       transform="matrix(0.10153285,0,0,-0.13314513,9.5599833,291.73092)">
      <path
         d="m 0,0 c 0,-12.667 -10.272,-22.942 -22.943,-22.942 -12.67,0 -22.937,10.275 -22.937,22.942 0,12.674 10.267,22.942 22.937,22.942 C -10.272,22.942 0,12.674 0,0"
         style="fill:#000000;fill-opacity:1;fill-rule:nonzero;stroke:none"
         id="path4022"
         inkscape:connector-curvature="0" />
    </g>
    <g
       id="g4024"
       transform="matrix(0.10153285,0,0,-0.13314513,7.2627005,291.14477)">
      <path
         d="m 0,0 c 0,-4.34 -3.515,-7.858 -7.858,-7.858 -4.339,0 -7.855,3.518 -7.855,7.858 0,4.337 3.516,7.857 7.855,7.857 C -3.515,7.857 0,4.337 0,0"
         style="fill:#ffffff;fill-opacity:1;fill-rule:nonzero;stroke:none"
         id="path4026"
         inkscape:connector-curvature="0" />
    </g>
    <g
       id="g4028"
       transform="matrix(0.10153285,0,0,-0.13314513,3.9044825,289.46551)">
      <path
         d="m 0,0 c 0,-3.961 -3.213,-7.17 -7.172,-7.17 -3.962,0 -7.173,3.209 -7.173,7.17 0,3.96 3.211,7.172 7.173,7.172 C -3.213,7.172 0,3.96 0,0"
         style="fill:#ffffff;fill-opacity:1;fill-rule:nonzero;stroke:none"
         id="path4030"
         inkscape:connector-curvature="0" />
    </g>
    <g
       id="g4032"
       transform="matrix(0.10153285,0,0,-0.13314513,9.7289443,285.98358)">
      <path
         d="m 0,0 c 0,-5.356 -4.344,-9.7 -9.702,-9.7 h -32.057 c -5.358,0 -9.702,4.344 -9.702,9.7 0,5.361 4.344,9.702 9.702,9.702 H -9.702 C -4.344,9.702 0,5.361 0,0"
         style="fill:#000000;fill-opacity:1;fill-rule:nonzero;stroke:none"
         id="path4034"
         inkscape:connector-curvature="0" />
    </g>
  </g>
</svg>
