<?xml version="1.0" encoding="UTF-8" standalone="no"?>
<!-- Created with Inkscape (http://www.inkscape.org/) -->

<svg
   xmlns:dc="http://purl.org/dc/elements/1.1/"
   xmlns:cc="http://creativecommons.org/ns#"
   xmlns:rdf="http://www.w3.org/1999/02/22-rdf-syntax-ns#"
   xmlns:svg="http://www.w3.org/2000/svg"
   xmlns="http://www.w3.org/2000/svg"
   xmlns:sodipodi="http://sodipodi.sourceforge.net/DTD/sodipodi-0.dtd"
   xmlns:inkscape="http://www.inkscape.org/namespaces/inkscape"
   width="50"
   height="50"
   viewBox="0 0 13.229166 13.229167"
   version="1.1"
   id="svg4270"
   inkscape:version="0.92.1 r15371"
   sodipodi:docname="news.svg">
  <defs
     id="defs4264" />
  <sodipodi:namedview
     id="base"
     pagecolor="#ffffff"
     bordercolor="#666666"
     borderopacity="1.0"
     inkscape:pageopacity="0.0"
     inkscape:pageshadow="2"
     inkscape:zoom="1.979899"
     inkscape:cx="228.54956"
     inkscape:cy="68.187848"
     inkscape:document-units="mm"
     inkscape:current-layer="layer1"
     showgrid="false"
     inkscape:window-width="1366"
     inkscape:window-height="745"
     inkscape:window-x="-8"
     inkscape:window-y="-8"
     inkscape:window-maximized="1"
     units="px" />
  <metadata
     id="metadata4267">
    <rdf:RDF>
      <cc:Work
         rdf:about="">
        <dc:format>image/svg+xml</dc:format>
        <dc:type
           rdf:resource="http://purl.org/dc/dcmitype/StillImage" />
        <dc:title></dc:title>
      </cc:Work>
    </rdf:RDF>
  </metadata>
  <g
     inkscape:label="Layer 1"
     inkscape:groupmode="layer"
     id="layer1"
     transform="translate(0,-283.77082)">
    <g
       id="g4040"
       transform="matrix(0.11905309,0,0,-0.14118281,1.1132594,287.56748)">
      <path
         d="M 0,0 24.044,21.119 H 76.427 L 76.142,-62.336 H -0.285 Z"
         style="fill:#000000;fill-opacity:1;fill-rule:nonzero;stroke:none"
         id="path4042"
         inkscape:connector-curvature="0" />
    </g>
    <g
       id="g4044"
       transform="matrix(0.11905309,0,0,-0.14118281,1.7500264,287.97614)">
      <path
         d="M 0,0 20.665,18.154 H 65.688 L 65.444,-53.578 H -0.246 Z"
         style="fill:#ffffff;fill-opacity:1;fill-rule:nonzero;stroke:none"
         id="path4046"
         inkscape:connector-curvature="0" />
    </g>
    <path
       d="m 5.3728124,294.96718 h -2.93073 v -0.66285 h 2.93073 z"
       style="fill:#000000;fill-opacity:1;fill-rule:nonzero;stroke:none;stroke-width:0.12964661"
       id="path4048"
       inkscape:connector-curvature="0" />
    <path
       d="m 5.3728124,293.88177 h -2.93073 v -0.66313 h 2.93073 z"
       style="fill:#000000;fill-opacity:1;fill-rule:nonzero;stroke:none;stroke-width:0.12964661"
       id="path4050"
       inkscape:connector-curvature="0" />
    <path
       d="m 5.3728124,292.73057 h -2.93073 v -0.66286 h 2.93073 z"
       style="fill:#000000;fill-opacity:1;fill-rule:nonzero;stroke:none;stroke-width:0.12964661"
       id="path4052"
       inkscape:connector-curvature="0" />
    <path
       d="m 5.3728124,291.7108 h -2.93073 v -0.66314 h 2.93073 z"
       style="fill:#000000;fill-opacity:1;fill-rule:nonzero;stroke:none;stroke-width:0.12964661"
       id="path4054"
       inkscape:connector-curvature="0" />
    <path
       d="m 5.3728124,290.62554 h -2.93073 v -0.66314 h 2.93073 z"
       style="fill:#000000;fill-opacity:1;fill-rule:nonzero;stroke:none;stroke-width:0.12964661"
       id="path4056"
       inkscape:connector-curvature="0" />
    <g
       id="g4058"
       transform="matrix(0.11905309,0,0,-0.14118281,1.5605184,287.71142)">
      <path
         d="m 0,0 c 2.072,1.234 8.324,-2.328 9.756,-3.518 2.263,-1.884 3.531,-4.742 4.307,-7.201 10.968,8.434 12.666,21.754 6.496,30.823"
         style="fill:#000000;fill-opacity:1;fill-rule:nonzero;stroke:none"
         id="path4060"
         inkscape:connector-curvature="0" />
    </g>
    <g
       id="g4062"
       transform="matrix(0.11905309,0,0,-0.14118281,11.272524,285.11554)">
      <path
         d="M 0,0 0.052,0.053 Z M 0.814,0.967 3.56,4.426 7.83,3.713 2.693,-2.389 0.763,-0.66 0,0 1.525,1.934 Z M 14.34,-0.557 H 14.288 Z M 8.289,4.018 H 8.39 8.593 c 0.169,0.103 0.304,0.154 0.406,0.154 l 0.61,0.152 0.255,0.153 0.611,0.101 0.406,0.051 h 0.102 0.305 L 10.78,4.477 c 0.371,0.101 0.695,0.101 0.967,0 0.167,0 0.303,-0.051 0.404,-0.153 L 12,4.477 12.151,4.426 12.763,4.172 14.032,3.053 14.389,1.477 V 0.307 L 14.34,-0.406 v -0.151 l -0.104,0.051 z"
         style="fill:#000000;fill-opacity:1;fill-rule:nonzero;stroke:none"
         id="path4064"
         inkscape:connector-curvature="0" />
    </g>
    <g
       id="g4066"
       transform="matrix(0.11905309,0,0,-0.14118281,8.1457614,290.65504)">
      <path
         d="m 0,0 0.047,0.049 z m 34.177,42.471 0.047,0.049 z M 36.931,33.07 36.88,33.021 v 0.049 z m 3.328,5.119 -0.096,-0.099 -3.232,-5.02 -0.149,-0.195 -0.433,-0.691 -0.627,-0.936 -0.145,-0.096 V 31.004 L 33.647,27.902 30.556,23.424 24.619,15.502 24.184,14.912 22.782,13.09 17.717,6.594 17.186,5.955 16.7,5.363 16.461,5.068 14.963,3.248 9.605,-3.1 10.041,-2.51 9.653,-2.953 7,-5.904 v 0.099 C 5.325,-3.379 3.281,-1.592 0.869,-0.441 L 0,0 l 1.013,1.23 0.193,0.297 0.338,0.442 8.109,9.941 0.581,0.738 0.193,0.198 1.254,1.572 17.619,22.146 4.877,5.907 0.047,0.199 0.242,0.096 h 0.146 l 5.647,-4.379 0.049,-0.051 z"
         style="fill:#000000;fill-opacity:1;fill-rule:nonzero;stroke:none"
         id="path4068"
         inkscape:connector-curvature="0" />
    </g>
    <g
       id="g4070"
       transform="matrix(0.11905309,0,0,-0.14118281,9.2109536,291.27298)">
      <path
         d="m 0,0 -0.354,-0.406 0.406,0.56 0.406,0.455 z M 6.306,7.068 6.968,7.678 6.204,6.865 Z"
         style="fill:#000000;fill-opacity:1;fill-rule:nonzero;stroke:none"
         id="path4072"
         inkscape:connector-curvature="0" />
    </g>
    <g
       id="g4074"
       transform="matrix(0.11905309,0,0,-0.14118281,9.4109266,287.87742)">
      <path
         d="M 0,0 V -0.309 H -0.154 Z M 0.863,0.812 0.812,0.709 0.558,0.354 V 0.559 L 0.762,0.861 Z M 1.575,1.828 H 1.728 L 1.27,1.422 Z m 7.73,9.508 -0.052,-0.051 z M 9.201,11.184 H 9.05 l 0.255,0.152 z m 0.255,0 h 0.151 l -1.016,-1.17 v 0.152 l 0.61,0.563 z"
         style="fill:#000000;fill-opacity:1;fill-rule:nonzero;stroke:none"
         id="path4076"
         inkscape:connector-curvature="0" />
    </g>
    <g
       id="g4078"
       transform="matrix(0.11905309,0,0,-0.14118281,9.5076563,287.77732)">
      <path
         d="m 0,0 h 0.051 z m -1.678,-8.234 0.052,-0.051 z m -2.694,2.642 0.05,0.053 z m 12.15,14.897 1.017,1.17 4.322,5.134 2.44,3 0.764,-0.66 -19.882,-24.252 1.883,-1.931 -0.151,-0.254 -0.611,-0.764 -1.423,2.541 -0.509,1.119 0.152,0.356 3.356,4.119 0.052,0.099 0.557,0.563 v 0.1 L 0,0 Z"
         style="fill:#000000;fill-opacity:1;fill-rule:nonzero;stroke:none"
         id="path4080"
         inkscape:connector-curvature="0" />
    </g>
    <g
       id="g4082"
       transform="matrix(0.11905309,0,0,-0.14118281,7.9700874,290.8566)">
      <path
         d="m 0,0 h 0.054 l -0.156,-0.152 z m 12.103,20.793 -0.052,-0.1 -0.103,0.1 z"
         style="fill:#000000;fill-opacity:1;fill-rule:nonzero;stroke:none"
         id="path4084"
         inkscape:connector-curvature="0" />
    </g>
    <g
       id="g4086"
       transform="matrix(0.11905309,0,0,-0.14118281,8.9426196,291.57852)">
      <path
         d="m 0,0 -0.306,-0.305 -2.135,-2.289 -3.609,-3.865 -0.358,-0.404 -0.202,-0.203 -1.474,-1.629 -0.255,-0.303 -0.558,-0.611 -2.138,-2.034 -5.744,-5.136 -3.306,-2.491 -0.559,-0.406 -0.557,-0.406 -0.611,-0.459 -1.069,-0.713 c 1.187,7.188 6.254,16.186 15.202,27 l 0.307,0.356 0.915,-0.459 C -3.916,4.455 -1.763,2.609 0,0.102 Z"
         style="fill:#000000;fill-opacity:1;fill-rule:nonzero;stroke:none"
         id="path4088"
         inkscape:connector-curvature="0" />
    </g>
  </g>
</svg>
