<?xml version="1.0" encoding="UTF-8" standalone="no"?>
<!-- Created with Inkscape (http://www.inkscape.org/) -->

<svg
   xmlns:dc="http://purl.org/dc/elements/1.1/"
   xmlns:cc="http://creativecommons.org/ns#"
   xmlns:rdf="http://www.w3.org/1999/02/22-rdf-syntax-ns#"
   xmlns:svg="http://www.w3.org/2000/svg"
   xmlns="http://www.w3.org/2000/svg"
   xmlns:sodipodi="http://sodipodi.sourceforge.net/DTD/sodipodi-0.dtd"
   xmlns:inkscape="http://www.inkscape.org/namespaces/inkscape"
   width="50"
   height="50"
   viewBox="0 0 13.229166 13.229167"
   version="1.1"
   id="svg4270"
   inkscape:version="0.92.1 r15371"
   sodipodi:docname="party.svg">
  <defs
     id="defs4264" />
  <sodipodi:namedview
     id="base"
     pagecolor="#ffffff"
     bordercolor="#666666"
     borderopacity="1.0"
     inkscape:pageopacity="0.0"
     inkscape:pageshadow="2"
     inkscape:zoom="1.979899"
     inkscape:cx="228.54956"
     inkscape:cy="68.187848"
     inkscape:document-units="mm"
     inkscape:current-layer="layer1"
     showgrid="false"
     inkscape:window-width="1366"
     inkscape:window-height="745"
     inkscape:window-x="-8"
     inkscape:window-y="-8"
     inkscape:window-maximized="1"
     units="px" />
  <metadata
     id="metadata4267">
    <rdf:RDF>
      <cc:Work
         rdf:about="">
        <dc:format>image/svg+xml</dc:format>
        <dc:type
           rdf:resource="http://purl.org/dc/dcmitype/StillImage" />
        <dc:title></dc:title>
      </cc:Work>
    </rdf:RDF>
  </metadata>
  <g
     inkscape:label="Layer 1"
     inkscape:groupmode="layer"
     id="layer1"
     transform="translate(0,-283.77082)">
    <g
       id="g3778"
       transform="matrix(0.09429153,0,0,-0.11726764,9.3736502,295.99856)">
      <path
         d="M 0,0 0.469,-2.582 C 0.592,-3.258 7.075,-2.646 14.946,-1.213 22.817,0.221 29.1,1.934 28.975,2.609 L 28.506,5.191 Z"
         style="fill:#000000;fill-opacity:1;fill-rule:nonzero;stroke:none"
         id="path3780"
         inkscape:connector-curvature="0" />
    </g>
    <g
       id="g3782"
       transform="matrix(0.09429153,0,0,-0.11726764,12.061514,295.38977)">
      <path
         d="m 0,0 c 0.123,-0.676 -6.158,-2.389 -14.031,-3.822 -7.871,-1.436 -14.352,-2.045 -14.475,-1.369 -0.123,0.677 6.157,2.388 14.027,3.822 C -6.604,0.066 -0.125,0.678 0,0"
         style="fill:#000000;fill-opacity:1;fill-rule:nonzero;stroke:none"
         id="path3784"
         inkscape:connector-curvature="0" />
    </g>
    <g
       id="g3786"
       transform="matrix(0.09429153,0,0,-0.11726764,12.331311,285.92385)">
      <path
         d="m 0,0 -61.947,-11.389 38.82,-39.461 z"
         style="fill:#ffffff;fill-opacity:1;fill-rule:nonzero;stroke:none"
         id="path3788"
         inkscape:connector-curvature="0" />
    </g>
    <g
       id="g3790"
       transform="matrix(0.09429153,0,0,-0.11726764,12.331311,285.92385)">
      <path
         d="m 0,0 -23.127,-50.85 -38.82,39.461 -3.581,-0.654 43.34,-44.012 25.271,56.621 z"
         style="fill:#000000;fill-opacity:1;fill-rule:nonzero;stroke:none"
         id="path3792"
         inkscape:connector-curvature="0" />
    </g>
    <g
       id="g3794"
       transform="matrix(0.09429153,0,0,-0.11726764,11.091896,288.90959)">
      <path
         d="m 0,0 -28.155,-5.176 17.784,-18.056 z"
         style="fill:#000000;fill-opacity:1;fill-rule:nonzero;stroke:none"
         id="path3796"
         inkscape:connector-curvature="0" />
    </g>
    <g
       id="g3798"
       transform="matrix(0.09429153,0,0,-0.11726764,9.3317562,286.22985)">
      <path
         d="m 0,0 c -18.981,-3.457 -34.132,-7.588 -33.833,-9.223 0.298,-1.638 15.929,-0.158 34.912,3.297 18.983,3.457 34.13,7.584 33.833,9.223 C 34.615,4.932 18.985,3.455 0,0 m 0.222,-1.217 c 15.746,2.867 26.97,3.998 31.623,3.955 -4.338,-1.681 -15.24,-4.58 -30.988,-7.449 -15.745,-2.867 -26.97,-3.998 -31.623,-3.953 4.339,1.68 15.243,4.578 30.988,7.447"
         style="fill:#000000;fill-opacity:1;fill-rule:nonzero;stroke:none"
         id="path3800"
         inkscape:connector-curvature="0" />
    </g>
    <g
       id="g3802"
       transform="matrix(0.09429153,0,0,-0.11726764,10.239123,292.49725)">
      <path
         d="m 0,0 -3.078,3.127 5.627,-30.912 c 0.157,-0.848 4.976,0.246 4.864,0.871 L 1.784,3.992 Z"
         style="fill:#000000;fill-opacity:1;fill-rule:nonzero;stroke:none"
         id="path3804"
         inkscape:connector-curvature="0" />
    </g>
    <g
       id="g3806"
       transform="matrix(0.09429153,0,0,-0.11726764,11.093414,288.91257)">
      <path
         d="m 0,0 c 0.075,-0.418 -6.116,-1.898 -13.831,-3.305 -7.715,-1.402 -14.031,-2.201 -14.109,-1.783 -0.076,0.42 6.118,1.9 13.832,3.303 C -6.393,-0.379 -0.077,0.42 0,0"
         style="fill:#000000;fill-opacity:1;fill-rule:nonzero;stroke:none"
         id="path3808"
         inkscape:connector-curvature="0" />
    </g>
    <g
       id="g3810"
       transform="matrix(0.09429153,0,0,-0.11726764,1.6487882,294.18961)">
      <path
         d="m 0,0 -0.356,-2.643 c -0.094,-0.695 6.361,-2.138 14.421,-3.224 8.06,-1.086 14.668,-1.404 14.762,-0.709 l 0.355,2.64 z"
         style="fill:#000000;fill-opacity:1;fill-rule:nonzero;stroke:none"
         id="path3812"
         inkscape:connector-curvature="0" />
    </g>
    <g
       id="g3814"
       transform="matrix(0.09429153,0,0,-0.11726764,4.4004232,294.65113)">
      <path
         d="m 0,0 c -0.092,-0.693 -6.701,-0.377 -14.761,0.711 -8.059,1.086 -14.515,2.531 -14.421,3.225 0.094,0.693 6.701,0.376 14.76,-0.711 C -6.363,2.139 0.095,0.695 0,0"
         style="fill:#000000;fill-opacity:1;fill-rule:nonzero;stroke:none"
         id="path3816"
         inkscape:connector-curvature="0" />
    </g>
    <g
       id="g3818"
       transform="matrix(0.09429153,0,0,-0.11726764,7.0509862,285.60732)">
      <path
         d="m 0,0 -63.451,8.445 25.133,-50.334 z"
         style="fill:#ffffff;fill-opacity:1;fill-rule:nonzero;stroke:none"
         id="path3820"
         inkscape:connector-curvature="0" />
    </g>
    <g
       id="g3822"
       transform="matrix(0.09429153,0,0,-0.11726764,7.0509862,285.60732)">
      <path
         d="M 0,0 -38.318,-41.889 -63.451,8.445 -67.116,8.932 -39.044,-47.211 3.158,-0.422 Z"
         style="fill:#000000;fill-opacity:1;fill-rule:nonzero;stroke:none"
         id="path3824"
         inkscape:connector-curvature="0" />
    </g>
    <g
       id="g3826"
       transform="matrix(0.09429153,0,0,-0.11726764,5.0991322,288.00901)">
      <path
         d="m 0,0 -28.836,3.836 11.518,-23.037 z"
         style="fill:#000000;fill-opacity:1;fill-rule:nonzero;stroke:none"
         id="path3828"
         inkscape:connector-curvature="0" />
    </g>
    <g
       id="g3830"
       transform="matrix(0.09429153,0,0,-0.11726764,4.0745412,284.73193)">
      <path
         d="M 0,0 C -19.434,2.617 -35.371,3.385 -35.597,1.711 -35.823,0.037 -20.25,-3.443 -0.818,-6.062 18.615,-8.682 34.555,-9.449 34.779,-7.775 35.007,-6.102 19.433,-2.619 0,0 m -0.168,-1.244 c 16.118,-2.172 27.323,-4.604 31.808,-6.108 -4.722,-0.261 -16.172,0.36 -32.29,2.532 -16.117,2.174 -27.324,4.603 -31.805,6.107 4.72,0.266 16.171,-0.359 32.287,-2.531"
         style="fill:#000000;fill-opacity:1;fill-rule:nonzero;stroke:none"
         id="path3832"
         inkscape:connector-curvature="0" />
    </g>
    <g
       id="g3834"
       transform="matrix(0.09429153,0,0,-0.11726764,3.3694762,291.14363)">
      <path
         d="M 0,0 -1.995,3.99 -6.26,-27.658 c -0.117,-0.867 4.885,-1.324 4.973,-0.684 L 2.978,3.301 Z"
         style="fill:#000000;fill-opacity:1;fill-rule:nonzero;stroke:none"
         id="path3836"
         inkscape:connector-curvature="0" />
    </g>
    <g
       id="g3838"
       transform="matrix(0.09429153,0,0,-0.11726764,5.0997742,288.01268)">
      <path
         d="m 0,0 c -0.056,-0.428 -6.504,0.088 -14.404,1.15 -7.897,1.067 -14.254,2.278 -14.195,2.705 0.056,0.43 6.506,-0.084 14.406,-1.148 C -6.296,1.643 0.058,0.43 0,0"
         style="fill:#000000;fill-opacity:1;fill-rule:nonzero;stroke:none"
         id="path3840"
         inkscape:connector-curvature="0" />
    </g>
  </g>
</svg>
