<?xml version="1.0" encoding="UTF-8" standalone="no"?>
<!-- Created with Inkscape (http://www.inkscape.org/) -->

<svg
   xmlns:dc="http://purl.org/dc/elements/1.1/"
   xmlns:cc="http://creativecommons.org/ns#"
   xmlns:rdf="http://www.w3.org/1999/02/22-rdf-syntax-ns#"
   xmlns:svg="http://www.w3.org/2000/svg"
   xmlns="http://www.w3.org/2000/svg"
   xmlns:sodipodi="http://sodipodi.sourceforge.net/DTD/sodipodi-0.dtd"
   xmlns:inkscape="http://www.inkscape.org/namespaces/inkscape"
   width="50"
   height="50"
   viewBox="0 0 13.229166 13.229167"
   version="1.1"
   id="svg4270"
   inkscape:version="0.92.1 r15371"
   sodipodi:docname="rings.svg">
  <defs
     id="defs4264" />
  <sodipodi:namedview
     id="base"
     pagecolor="#ffffff"
     bordercolor="#666666"
     borderopacity="1.0"
     inkscape:pageopacity="0.0"
     inkscape:pageshadow="2"
     inkscape:zoom="1.979899"
     inkscape:cx="228.54956"
     inkscape:cy="68.187848"
     inkscape:document-units="mm"
     inkscape:current-layer="layer1"
     showgrid="false"
     inkscape:window-width="1366"
     inkscape:window-height="745"
     inkscape:window-x="-8"
     inkscape:window-y="-8"
     inkscape:window-maximized="1"
     units="px" />
  <metadata
     id="metadata4267">
    <rdf:RDF>
      <cc:Work
         rdf:about="">
        <dc:format>image/svg+xml</dc:format>
        <dc:type
           rdf:resource="http://purl.org/dc/dcmitype/StillImage" />
        <dc:title></dc:title>
      </cc:Work>
    </rdf:RDF>
  </metadata>
  <g
     inkscape:label="Layer 1"
     inkscape:groupmode="layer"
     id="layer1"
     transform="translate(0,-283.77082)">
    <g
       id="g3926"
       transform="matrix(0.11796808,0,0,-0.13893772,5.6518504,285.37497)">
      <path
         d="m 0,0 -3.122,5.408 -9.044,0.059 -3.192,-5.368 z"
         style="fill:#000000;fill-opacity:1;fill-rule:nonzero;stroke:none"
         id="path3928"
         inkscape:connector-curvature="0" />
    </g>
    <g
       id="g3930"
       transform="matrix(0.11796808,0,0,-0.13893772,6.8220817,285.38407)">
      <path
         d="m 0,0 -5.354,5.424 -5.904,0.037 3.122,-5.406 z"
         style="fill:#000000;fill-opacity:1;fill-rule:nonzero;stroke:none"
         id="path3932"
         inkscape:connector-curvature="0" />
    </g>
    <g
       id="g3934"
       transform="matrix(0.11796808,0,0,-0.13893772,4.0059368,284.61394)">
      <path
         d="m 0,0 -5.902,0.04 -5.423,-5.355 8.135,-0.053 z"
         style="fill:#000000;fill-opacity:1;fill-rule:nonzero;stroke:none"
         id="path3936"
         inkscape:connector-curvature="0" />
    </g>
    <g
       id="g3938"
       transform="matrix(0.11796808,0,0,-0.13893772,5.7110587,286.95708)">
      <path
         d="M 0,0 9.906,9.781 1.318,9.835 -3.453,0.023 Z"
         style="fill:#000000;fill-opacity:1;fill-rule:nonzero;stroke:none"
         id="path3940"
         inkscape:connector-curvature="0" />
    </g>
    <g
       id="g3942"
       transform="matrix(0.11796808,0,0,-0.13893772,5.1020971,286.95242)">
      <path
         d="M 0,0 4.773,9.814 -10.83,9.913 -6.189,0.041 Z"
         style="fill:#000000;fill-opacity:1;fill-rule:nonzero;stroke:none"
         id="path3944"
         inkscape:connector-curvature="0" />
    </g>
    <g
       id="g3946"
       transform="matrix(0.11796808,0,0,-0.13893772,4.1706791,286.94529)">
      <path
         d="M 0,0 -4.643,9.873 -13.229,9.929 -3.45,0.023 Z"
         style="fill:#000000;fill-opacity:1;fill-rule:nonzero;stroke:none"
         id="path3948"
         inkscape:connector-curvature="0" />
    </g>
    <g
       id="g3950"
       transform="matrix(0.11796808,0,0,-0.13893772,4.6905883,295.46411)">
      <path
         d="M 0,0 C -13.964,0.086 -25.252,11.52 -25.162,25.486 -25.072,39.45 -13.637,50.738 0.327,50.648 14.292,50.561 25.58,39.124 25.49,25.159 25.4,11.193 13.965,-0.092 0,0 m 6.571,56.966 2.556,2.523 -8.743,0.056 -8.739,0.055 2.524,-2.556 C -20.697,54.239 -32.021,41.211 -32.122,25.53 -32.239,7.728 -17.846,-6.849 -0.045,-6.964 17.76,-7.077 32.336,7.313 32.451,25.113 32.553,40.795 21.395,53.969 6.571,56.966"
         style="fill:#000000;fill-opacity:1;fill-rule:nonzero;stroke:none"
         id="path3952"
         inkscape:connector-curvature="0" />
    </g>
    <g
       id="g3954"
       transform="matrix(0.11796808,0,0,-0.13893772,8.982151,295.54823)">
      <path
         d="M 0,0 C -13.951,0.09 -25.232,11.512 -25.142,25.468 -25.053,39.42 -13.627,50.702 0.328,50.609 14.281,50.521 25.561,39.094 25.471,25.142 25.381,11.187 13.955,-0.088 0,0 M -5.828,57.003 C -5.889,56.991 -5.949,56.979 -6.012,56.966 -20.773,54.092 -31.995,41.113 -32.096,25.512 -32.209,7.726 -17.832,-6.84 -0.043,-6.955 17.746,-7.068 32.311,7.312 32.426,25.098 29.729,62.034 -5.828,57.003 -5.828,57.003"
         style="fill:#000000;fill-opacity:1;fill-rule:nonzero;stroke:none"
         id="path3956"
         inkscape:connector-curvature="0" />
    </g>
  </g>
</svg>
