<?xml version="1.0" encoding="UTF-8" standalone="no"?>
<!-- Generator: Adobe Illustrator 16.0.0, SVG Export Plug-In . SVG Version: 6.00 Build 0)  -->

<svg
   xmlns:dc="http://purl.org/dc/elements/1.1/"
   xmlns:cc="http://creativecommons.org/ns#"
   xmlns:rdf="http://www.w3.org/1999/02/22-rdf-syntax-ns#"
   xmlns:svg="http://www.w3.org/2000/svg"
   xmlns="http://www.w3.org/2000/svg"
   xmlns:sodipodi="http://sodipodi.sourceforge.net/DTD/sodipodi-0.dtd"
   xmlns:inkscape="http://www.inkscape.org/namespaces/inkscape"
   version="1.1"
   id="Obszar_kompozycji_1_1_"
   x="0px"
   y="0px"
   width="72px"
   height="92.16px"
   viewBox="0 0 72 92.16"
   enable-background="new 0 0 72 92.16"
   xml:space="preserve"
   sodipodi:docname="logotyp.svg"
   inkscape:version="0.92.2 (5c3e80d, 2017-08-06)"
   inkscape:export-filename="C:\Users\publi\OneDrive\Dokumenty\projekt3.png"
   inkscape:export-xdpi="96.772408"
   inkscape:export-ydpi="96.772408"><metadata
     id="metadata21"><rdf:RDF><cc:Work
         rdf:about=""><dc:format>image/svg+xml</dc:format><dc:type
           rdf:resource="http://purl.org/dc/dcmitype/StillImage" /><dc:title /></cc:Work></rdf:RDF></metadata><defs
     id="defs19" /><sodipodi:namedview
     pagecolor="#ffffff"
     bordercolor="#666666"
     borderopacity="1"
     objecttolerance="10"
     gridtolerance="10"
     guidetolerance="10"
     inkscape:pageopacity="0"
     inkscape:pageshadow="2"
     inkscape:window-width="3000"
     inkscape:window-height="1955"
     id="namedview17"
     showgrid="false"
     inkscape:zoom="17.881944"
     inkscape:cx="36"
     inkscape:cy="46.080002"
     inkscape:window-x="-13"
     inkscape:window-y="-13"
     inkscape:window-maximized="1"
     inkscape:current-layer="g4503" /><g
     id="g4503"
     inkscape:label="TEXT"
     style="display:inline"
     transform="matrix(1.3077774,0,0,1.4817891,143.25181,-49.12484)"><text
       y="65.618347"
       x="-95.429329"
       style="font-style:italic;font-variant:normal;font-weight:normal;font-stretch:normal;font-size:19.03310394px;font-family:'Bodoni MT';-inkscape-font-specification:'Bodoni MT Italic';display:inline;fill:#71266f;fill-opacity:0.94117647;stroke-width:1.05739462"
       id="text8"
       font-size="18"
       transform="scale(1.0573947,0.94572067)">A M</text>
<text
       inkscape:label="text13"
       y="70.513977"
       x="-97.85585"
       style="font-style:italic;font-variant:normal;font-weight:normal;font-stretch:normal;font-size:6px;font-family:'Bodoni MT';-inkscape-font-specification:'Bodoni MT Italic';display:inline;fill:#71266f;fill-opacity:0.94117647;"
       id="text13"
       font-size="6">18.08.2018</text>
</g><g
     id="g4521"
     inkscape:label="rings"
     transform="matrix(0.61699001,0,0,0.61699001,83.839849,11.609109)"><circle
       r="4.6861019"
       cy="38.269833"
       cx="-85.911865"
       id="path3697"
       style="display:inline;fill:none;fill-opacity:1;stroke:#71266f;stroke-opacity:0.94117647" /><circle
       r="4.6861019"
       cy="38.191505"
       cx="-79.225731"
       id="path3697-8"
       style="display:inline;fill:none;fill-opacity:1;stroke:#71266f;stroke-opacity:0.94117647" /></g><path
     style="display:inline;fill:none;fill-opacity:1;stroke:#71266f;stroke-width:0.7347182;stroke-miterlimit:4;stroke-dasharray:none;stroke-dashoffset:0;stroke-opacity:0.94117647"
     id="path4523"
     sodipodi:type="arc"
     sodipodi:cx="36.360233"
     sodipodi:cy="40.092056"
     sodipodi:rx="34.351669"
     sodipodi:ry="34.627613"
     sodipodi:start="2.7174776"
     sodipodi:end="1.870993"
     d="M 5.05201,54.341818 A 34.351669,34.627613 0 0 1 15.963241,12.229474 34.351669,34.627613 0 0 1 59.099878,14.137494 34.351669,34.627613 0 0 1 66.30993,57.051378 34.351669,34.627613 0 0 1 26.202167,73.171065"
     sodipodi:open="true"
     inkscape:label="okrag" /><g
     inkscape:groupmode="layer"
     id="layer1"
     inkscape:label="infinity"
     style="display:inline"><g
       aria-label="∞"
       transform="matrix(0.70475285,0.60117376,-0.60117376,0.70475285,117.62529,19.243413)"
       style="font-style:normal;font-variant:normal;font-weight:normal;font-stretch:normal;font-size:31.46274948px;line-height:1.25;font-family:Constantia;-inkscape-font-specification:Constantia;letter-spacing:0px;word-spacing:0px;display:inline;fill:#71266f;fill-opacity:0.94117647;stroke:none;stroke-width:0.5;stroke-miterlimit:4;stroke-dasharray:none;stroke-opacity:1"
       id="text4511"
       inkscape:label="text4511"><path
         style="font-style:normal;font-variant:normal;font-weight:normal;font-stretch:normal;font-family:Constantia;-inkscape-font-specification:Constantia;display:inline;fill:#71266f;fill-opacity:0.94117647;stroke:none;stroke-width:0.54558575;stroke-miterlimit:4;stroke-dasharray:none;stroke-opacity:1"
         d="m -60.172825,103.66114 c -1.597711,-0.15656 -2.93799,0.60612 -3.995791,1.73444 -1.047106,1.11693 -1.53749,2.4885 -1.470531,4.11194 0.06649,1.61225 0.659024,2.95037 1.773893,4.01709 1.114858,1.06675 2.451915,1.58611 4.012451,1.55797 2.351931,-0.0425 4.712717,-1.50823 7.081132,-4.39691 2.692139,2.79739 5.069029,4.17774 7.131156,4.14054 1.738877,-0.0314 3.154133,-0.58861 4.247224,-1.67275 1.104242,-1.08435 1.621141,-2.47191 1.551417,-4.16254 -0.06834,-1.65704 -0.641656,-3.00727 -1.722163,-4.05221 -1.080964,-1.05614 -2.419909,-1.56958 -4.013869,-1.54084 -1.103511,0.0199 -2.181811,0.34618 -3.237635,0.98147 -1.056273,0.62411 -2.352243,1.81258 -3.886223,3.56578 -2.607148,-2.89977 -5.695497,-4.10999 -7.471061,-4.28398 z m 0.448256,0.83709 c 0.89685,-0.0328 2.981595,1.04153 4.122488,1.93329 1.140892,0.89176 1.775294,1.44077 2.531208,2.95179 -1.061786,1.30208 -1.749527,2.44548 -2.971158,3.37889 -1.221632,0.93342 -2.977153,1.65684 -3.813152,1.67192 -1.125813,0.0203 -3.068233,-1.14255 -3.84498,-1.92686 -0.77137,-0.7788 -1.004479,-1.92949 -1.048051,-2.98228 -0.04689,-1.13299 0.198678,-2.52909 0.858828,-3.2917 1.187097,-1.40801 2.362127,-1.6692 4.164817,-1.73505 z m 14.208007,-0.45717 c 1.103519,-0.02 2.595167,0.81532 3.348786,1.5076 0.753625,0.6923 1.458153,2.41516 1.504328,3.53478 0.04711,1.14201 -0.412772,2.53531 -1.104062,3.35451 -0.691738,0.80799 -3.020365,1.73212 -4.068133,1.75099 -0.780272,0.014 -2.524461,-0.9556 -3.627481,-1.73811 -1.622254,-1.39713 -1.784541,-1.46574 -2.754262,-3.01829 0.783347,-1.72301 2.10089,-3.10803 2.967677,-3.72871 0.877969,-0.62086 2.919447,-1.6481 3.733147,-1.66277 z"
         id="path4513-2"
         inkscape:connector-curvature="0"
         sodipodi:nodetypes="scscscscscsccssscsssacsscscscccs"
         inkscape:label="v1" /><path
         d="m -53.907046,112.48591 q -3.133985,-3.71776 -5.607375,-3.71776 -1.459454,0 -2.411939,1.0293 -0.952486,1.02929 -0.952486,2.50411 0,1.52091 1.013936,2.61165 1.029299,1.09075 2.580929,1.09075 2.304401,0 5.376935,-3.51805 z m 1.981784,-0.13826 q 3.302974,3.65631 5.453748,3.65631 1.444091,0 2.442665,-1.09075 0.998574,-1.10611 0.998574,-2.6731 0,-1.53627 -0.998574,-2.50412 -0.998574,-0.96784 -2.519478,-0.96784 -1.121475,0 -2.365851,0.82958 -1.229014,0.82959 -3.011084,2.74992 z m -0.937123,-1.1522 q 2.212225,-2.36585 3.702404,-3.19544 1.490179,-0.84494 3.011083,-0.84494 2.196862,0 3.625591,1.47481 1.428728,1.45946 1.428728,3.73313 0,2.31976 -1.582355,3.77922 -1.566992,1.45945 -3.963569,1.45945 -2.842094,0 -6.390871,-3.90212 -3.425876,3.90212 -6.667399,3.90212 -2.150774,0 -3.62559,-1.49018 -1.474817,-1.49018 -1.474817,-3.7024 0,-2.22759 1.505542,-3.73313 1.520904,-1.5209 3.733129,-1.5209 3.272249,0 6.698124,4.04038 z"
         style="font-style:normal;font-variant:normal;font-weight:normal;font-stretch:normal;font-family:Constantia;-inkscape-font-specification:Constantia;display:none;fill:#71266f;fill-opacity:0.94117647;stroke:none;stroke-width:0.5;stroke-miterlimit:4;stroke-dasharray:none;stroke-opacity:1"
         id="path4513"
         inkscape:connector-curvature="0"
         inkscape:label="v2" /></g></g></svg>